<?xml version="1.0" ?><!-- Uploaded to: SVG Repo, www.svgrepo.com, Transformed by: SVG Repo Mixer Tools -->
<svg fill="#000000" width="800px" height="800px" viewBox="0 0 512 512" data-name="Layer 1" id="Layer_1" xmlns="http://www.w3.org/2000/svg"><title/><path d="M371.93,61.57H140.07a18,18,0,0,0-17.75,17.75V432.68a18,18,0,0,0,17.75,17.75H371.93a17.8,17.8,0,0,0,17.75-17.75V79.32A18,18,0,0,0,371.93,61.57ZM157.82,97.07H354.18V414.93H157.82V97.07Z"/><path d="M243.44,335.79a17.78,17.78,0,0,0,25.11,0L335,269.36a18,18,0,0,0,0-25.1l-66.43-66.44a18,18,0,0,0-25.11,0L177,244.26a18,18,0,0,0,0,25.1Zm53.89-79L256,298.14l-41.34-41.33L256,215.48Z"/></svg>