<?xml version="1.0" encoding="utf-8"?>
<!-- Uploaded to: SVG Repo, www.svgrepo.com, Generator: SVG Repo Mixer Tools -->
<svg fill="#000000" width="800px" height="800px" viewBox="0 0 32 32" version="1.1" xmlns="http://www.w3.org/2000/svg">
<title>home</title>
<path d="M30.814 13.051l-14.001-12c-0.217-0.187-0.502-0.3-0.813-0.3s-0.596 0.114-0.815 0.302l0.002-0.001-14 12c-0.268 0.23-0.437 0.57-0.437 0.948 0 0 0 0.001 0 0.001v-0 16c0 0.69 0.56 1.25 1.25 1.25h28c0.69-0.001 1.249-0.56 1.25-1.25v-16c-0-0.379-0.168-0.718-0.434-0.948l-0.002-0.001zM12.25 28.75v-4.75c0-2.071 1.679-3.75 3.75-3.75s3.75 1.679 3.75 3.75v0 4.75zM28.75 28.75h-6.5v-4.75c0-3.452-2.798-6.25-6.25-6.25s-6.25 2.798-6.25 6.25v0 4.75h-6.5v-14.175l12.75-10.929 12.75 10.929z"></path>
</svg>